<mxfile host="app.diagrams.net" modified="2024-05-19T09:55:16.015Z" agent="Mozilla/5.0 (Macintosh; Intel Mac OS X 10_15_7) AppleWebKit/537.36 (KHTML, like Gecko) Chrome/124.0.0.0 Safari/537.36" etag="uo9m1mk8joKaIHiCP44C" version="24.4.0" type="device">
  <diagram name="Страница — 1" id="5G2f112vVM859LtNPsRa">
    <mxGraphModel dx="897" dy="686" grid="1" gridSize="10" guides="1" tooltips="1" connect="1" arrows="1" fold="1" page="1" pageScale="1" pageWidth="827" pageHeight="1169" math="0" shadow="0">
      <root>
        <mxCell id="0" />
        <mxCell id="1" parent="0" />
        <mxCell id="GwW1dyIRPsHJwRouggAs-26" value="" style="edgeStyle=orthogonalEdgeStyle;rounded=0;orthogonalLoop=1;jettySize=auto;html=1;" parent="1" source="GwW1dyIRPsHJwRouggAs-1" target="GwW1dyIRPsHJwRouggAs-2" edge="1">
          <mxGeometry relative="1" as="geometry" />
        </mxCell>
        <mxCell id="GwW1dyIRPsHJwRouggAs-1" value="Start" style="rounded=1;whiteSpace=wrap;html=1;" parent="1" vertex="1">
          <mxGeometry x="210" y="10" width="120" height="60" as="geometry" />
        </mxCell>
        <mxCell id="GwW1dyIRPsHJwRouggAs-27" value="" style="edgeStyle=orthogonalEdgeStyle;rounded=0;orthogonalLoop=1;jettySize=auto;html=1;" parent="1" source="GwW1dyIRPsHJwRouggAs-2" edge="1">
          <mxGeometry relative="1" as="geometry">
            <mxPoint x="270" y="190" as="targetPoint" />
          </mxGeometry>
        </mxCell>
        <mxCell id="GwW1dyIRPsHJwRouggAs-2" value="string[] = {&quot;ryr&quot;, &quot;hgf5&quot;,.............} задание массива&lt;div&gt;num_sim = 3 размер элемента&lt;/div&gt;" style="shape=parallelogram;perimeter=parallelogramPerimeter;whiteSpace=wrap;html=1;fixedSize=1;" parent="1" vertex="1">
          <mxGeometry x="87.5" y="100" width="365" height="60" as="geometry" />
        </mxCell>
        <mxCell id="_eKJPJIaNRSuj9SMcKFg-28" value="" style="edgeStyle=orthogonalEdgeStyle;rounded=0;orthogonalLoop=1;jettySize=auto;html=1;" edge="1" parent="1" source="GwW1dyIRPsHJwRouggAs-7" target="_eKJPJIaNRSuj9SMcKFg-25">
          <mxGeometry relative="1" as="geometry" />
        </mxCell>
        <mxCell id="GwW1dyIRPsHJwRouggAs-7" value="j = j + 1" style="rounded=0;whiteSpace=wrap;html=1;" parent="1" vertex="1">
          <mxGeometry x="210" y="760" width="120" height="40" as="geometry" />
        </mxCell>
        <mxCell id="_eKJPJIaNRSuj9SMcKFg-2" value="" style="edgeStyle=orthogonalEdgeStyle;rounded=0;orthogonalLoop=1;jettySize=auto;html=1;" edge="1" parent="1" source="GwW1dyIRPsHJwRouggAs-44" target="_eKJPJIaNRSuj9SMcKFg-1">
          <mxGeometry relative="1" as="geometry" />
        </mxCell>
        <mxCell id="GwW1dyIRPsHJwRouggAs-44" value="Print string (исходный массив)" style="shape=document;whiteSpace=wrap;html=1;boundedLbl=1;" parent="1" vertex="1">
          <mxGeometry x="210" y="190" width="120" height="80" as="geometry" />
        </mxCell>
        <mxCell id="GwW1dyIRPsHJwRouggAs-45" value="End" style="rounded=1;whiteSpace=wrap;html=1;" parent="1" vertex="1">
          <mxGeometry x="452.5" y="380" width="120" height="60" as="geometry" />
        </mxCell>
        <mxCell id="_eKJPJIaNRSuj9SMcKFg-1" value="j = 0&lt;div&gt;i = 0&lt;/div&gt;" style="whiteSpace=wrap;html=1;" vertex="1" parent="1">
          <mxGeometry x="210" y="290" width="120" height="40" as="geometry" />
        </mxCell>
        <mxCell id="_eKJPJIaNRSuj9SMcKFg-9" value="" style="edgeStyle=orthogonalEdgeStyle;rounded=0;orthogonalLoop=1;jettySize=auto;html=1;" edge="1" parent="1" source="_eKJPJIaNRSuj9SMcKFg-6" target="_eKJPJIaNRSuj9SMcKFg-8">
          <mxGeometry relative="1" as="geometry" />
        </mxCell>
        <mxCell id="_eKJPJIaNRSuj9SMcKFg-6" value="&lt;span style=&quot;text-align: left;&quot;&gt;string temp_str = array[i];&lt;/span&gt;" style="whiteSpace=wrap;html=1;" vertex="1" parent="1">
          <mxGeometry x="180" y="480" width="180" height="60" as="geometry" />
        </mxCell>
        <mxCell id="_eKJPJIaNRSuj9SMcKFg-14" value="да" style="edgeStyle=orthogonalEdgeStyle;rounded=0;orthogonalLoop=1;jettySize=auto;html=1;" edge="1" parent="1" source="_eKJPJIaNRSuj9SMcKFg-8" target="_eKJPJIaNRSuj9SMcKFg-13">
          <mxGeometry relative="1" as="geometry" />
        </mxCell>
        <mxCell id="_eKJPJIaNRSuj9SMcKFg-27" value="нет" style="edgeStyle=orthogonalEdgeStyle;rounded=0;orthogonalLoop=1;jettySize=auto;html=1;" edge="1" parent="1">
          <mxGeometry relative="1" as="geometry">
            <mxPoint x="270" y="820" as="targetPoint" />
            <mxPoint x="335" y="610" as="sourcePoint" />
            <Array as="points">
              <mxPoint x="520" y="610" />
              <mxPoint x="520" y="820" />
            </Array>
          </mxGeometry>
        </mxCell>
        <mxCell id="_eKJPJIaNRSuj9SMcKFg-8" value="&lt;span style=&quot;text-align: left;&quot;&gt;if (temp_str.Length &amp;lt;= n_simbol)&lt;/span&gt;" style="rhombus;whiteSpace=wrap;html=1;" vertex="1" parent="1">
          <mxGeometry x="135" y="570" width="270" height="80" as="geometry" />
        </mxCell>
        <mxCell id="_eKJPJIaNRSuj9SMcKFg-15" value="" style="edgeStyle=orthogonalEdgeStyle;rounded=0;orthogonalLoop=1;jettySize=auto;html=1;" edge="1" parent="1" source="_eKJPJIaNRSuj9SMcKFg-13" target="GwW1dyIRPsHJwRouggAs-7">
          <mxGeometry relative="1" as="geometry" />
        </mxCell>
        <mxCell id="_eKJPJIaNRSuj9SMcKFg-36" value="" style="edgeStyle=orthogonalEdgeStyle;rounded=0;orthogonalLoop=1;jettySize=auto;html=1;" edge="1" parent="1" source="_eKJPJIaNRSuj9SMcKFg-13" target="_eKJPJIaNRSuj9SMcKFg-16">
          <mxGeometry relative="1" as="geometry" />
        </mxCell>
        <mxCell id="_eKJPJIaNRSuj9SMcKFg-13" value="&lt;span style=&quot;text-align: left;&quot;&gt;new_str[j] = array[i];&lt;/span&gt;" style="whiteSpace=wrap;html=1;" vertex="1" parent="1">
          <mxGeometry x="210" y="680" width="120" height="60" as="geometry" />
        </mxCell>
        <mxCell id="_eKJPJIaNRSuj9SMcKFg-16" value="Print new_str (вывод нового массива)" style="shape=document;whiteSpace=wrap;html=1;boundedLbl=1;" vertex="1" parent="1">
          <mxGeometry x="370" y="670" width="120" height="80" as="geometry" />
        </mxCell>
        <mxCell id="_eKJPJIaNRSuj9SMcKFg-24" value="" style="edgeStyle=orthogonalEdgeStyle;rounded=0;orthogonalLoop=1;jettySize=auto;html=1;" edge="1" parent="1" source="_eKJPJIaNRSuj9SMcKFg-1" target="_eKJPJIaNRSuj9SMcKFg-22">
          <mxGeometry relative="1" as="geometry">
            <mxPoint x="270" y="330" as="sourcePoint" />
            <mxPoint x="270" y="490" as="targetPoint" />
          </mxGeometry>
        </mxCell>
        <mxCell id="_eKJPJIaNRSuj9SMcKFg-34" value="да" style="edgeStyle=orthogonalEdgeStyle;rounded=0;orthogonalLoop=1;jettySize=auto;html=1;" edge="1" parent="1" source="_eKJPJIaNRSuj9SMcKFg-22" target="_eKJPJIaNRSuj9SMcKFg-6">
          <mxGeometry relative="1" as="geometry" />
        </mxCell>
        <mxCell id="_eKJPJIaNRSuj9SMcKFg-35" value="нет" style="edgeStyle=orthogonalEdgeStyle;rounded=0;orthogonalLoop=1;jettySize=auto;html=1;" edge="1" parent="1" source="_eKJPJIaNRSuj9SMcKFg-22" target="GwW1dyIRPsHJwRouggAs-45">
          <mxGeometry relative="1" as="geometry" />
        </mxCell>
        <mxCell id="_eKJPJIaNRSuj9SMcKFg-22" value="i &amp;lt; array.Length" style="rhombus;whiteSpace=wrap;html=1;" vertex="1" parent="1">
          <mxGeometry x="130" y="370" width="280" height="80" as="geometry" />
        </mxCell>
        <mxCell id="_eKJPJIaNRSuj9SMcKFg-30" style="edgeStyle=orthogonalEdgeStyle;rounded=0;orthogonalLoop=1;jettySize=auto;html=1;" edge="1" parent="1" source="_eKJPJIaNRSuj9SMcKFg-25">
          <mxGeometry relative="1" as="geometry">
            <mxPoint x="270" y="350" as="targetPoint" />
            <Array as="points">
              <mxPoint x="270" y="900" />
              <mxPoint x="80" y="900" />
              <mxPoint x="80" y="350" />
            </Array>
          </mxGeometry>
        </mxCell>
        <mxCell id="_eKJPJIaNRSuj9SMcKFg-25" value="i = i + 1" style="whiteSpace=wrap;html=1;" vertex="1" parent="1">
          <mxGeometry x="210" y="840" width="120" height="40" as="geometry" />
        </mxCell>
      </root>
    </mxGraphModel>
  </diagram>
</mxfile>
